<?xml version="1.0" encoding="utf-8"?>
<!-- Generator: Adobe Illustrator 28.1.0, SVG Export Plug-In . SVG Version: 6.00 Build 0)  -->
<svg version="1.1" id="레이어_1" xmlns="http://www.w3.org/2000/svg" xmlns:xlink="http://www.w3.org/1999/xlink" x="0px"
	 y="0px" viewBox="0 0 595.28 597.2" style="enable-background:new 0 0 595.28 597.2;" xml:space="preserve">
<style type="text/css">
	.st0{fill:#FFFFFF;}
	.st1{fill:#040000;}
</style>
<g>
	<g>
		<path class="st0" d="M626.35,298.6c0,108.61-0.01,217.22,0.06,325.83c0,2.4-0.54,2.95-2.95,2.95
			c-217.22-0.06-434.44-0.06-651.66,0c-2.4,0-2.95-0.54-2.95-2.95c0.06-217.22,0.06-434.44,0-651.66c0-2.4,0.54-2.95,2.95-2.95
			c217.22,0.06,434.44,0.06,651.66,0c2.4,0,2.95,0.54,2.95,2.95C626.34,81.38,626.35,189.99,626.35,298.6z"/>
		<path class="st1" d="M157.76,426.35c-7.82,1.08-15.29,1.08-22.75,0.81c-7.77-0.28-15.17-1.75-20.94-7.67
			c-4.9-5.03-5.25-11.17-4.32-17.55c1.76-12.07,7.16-22.91,11.81-33.98c9.58-22.85,18.86-45.87,30.44-67.78
			c13.28-25.13,31.4-46.23,55.78-61.38c3.23-2.01,2.57-4.9,2.86-7.46c3.01-26.24,8.59-51.8,21.44-75.12
			c18.31-33.22,45.75-55.34,83.01-63.56c31.07-6.86,61.06-2.93,88.67,13.84c14.21,8.63,26.17,19.68,34.09,34.59
			c0.8,1.5,2.16,1.98,3.49,2.59c17.3,7.97,30.87,20.14,39.05,37.32c9.75,20.47,9.99,40.83-4.75,59.48
			c-8.82,11.17-20.76,17.6-34.58,20.54c-2.45,0.52-3.39,1.19-3.35,3.99c0.46,41.32-11.13,78.89-35.12,112.64
			c-19.19,27-43.76,47.3-74.25,60.36c-0.38,0.16-0.81,0.21-1.37,0.34c4.74,8.94,9.42,17.78,14.11,26.62
			c1.19,2.24,2.69,4.36,3.52,6.72c1.21,3.43,3.24,4.34,6.83,4.24c9.71-0.28,19.45-0.2,29.17,0.02c6.98,0.15,11.73,5.77,11.7,13.27
			c-0.03,6.91-5.01,12.38-11.81,12.41c-27.57,0.14-55.15,0.15-82.72,0.19c-3.85,0.01-7.7-0.19-11.54-0.05
			c-6.16,0.23-11.82-5.7-11.97-12.83c-0.15-6.98,4.88-12.83,11.66-13.01c9.72-0.25,19.45-0.09,29.17-0.11c1.05,0,2.11,0,3.23,0
			c0.12-1.75-1.03-2.83-1.71-4.1c-4.13-7.73-8.34-15.42-12.38-23.2c-0.82-1.57-1.82-1.8-3.23-1.4c-16.14,4.68-32.69,6.46-49.42,6.74
			c-5.12,0.08-10.25-0.21-15.37-0.4c-1.38-0.05-2.24,0.4-3.22,1.49c-12.77,14.13-26.53,27.16-42.55,37.6
			c-12.64,8.24-26.24,14.21-41.37,15.94c-5.72,0.65-11.6,0.84-17.28-0.01c-9.83-1.47-14.25-10.34-9.94-19.72
			c3.89-8.46,8.9-16.34,13.63-24.35c7.21-12.21,14.47-24.39,21.7-36.59C157.33,427.55,157.41,427.25,157.76,426.35z"/>
		<path class="st0" d="M155.35,480.14c10.45-17.54,20.84-34.38,30.52-51.61c3.07-5.48,7.02-7.7,12.78-9.11
			c30.95-7.55,59.24-20.72,83.85-41.19c17.47-14.52,32.27-31.27,41.43-52.34c7.9-18.16,10.4-36.99,4.38-56.14
			c-6.09-19.38-20.35-31.05-38.75-38.09c-12.41-4.75-25.36-5.94-38.56-4.8c-4.13,0.36-8.23,0.86-12.23,1.96
			c-1.15,0.32-1.9,0.32-1.7-1.2c3.2-24.44,8.83-47.99,23.71-68.44c14.56-19.99,33.04-34.58,57.23-40.58
			c31.15-7.73,59.74-2.2,84.68,18.77c4.85,4.08,8.48,9.2,11.68,14.64c0.8,1.36,0.67,2.31-0.09,3.68
			c-6.9,12.49-11.63,25.8-13.56,39.91c-3.18,23.17-1.14,45.77,8.81,67.29c2.48,5.36,1.38,11.15,1.16,16.72
			c-0.48,12-2.19,23.86-5.59,35.43c-6.66,22.69-17.64,42.96-33.42,60.65c-23.44,26.27-52.96,41.55-87.17,48.14
			c-17.04,3.28-34.32,3.57-51.61,2.17c-3.75-0.3-6.88,0.6-9.43,3.48c-8.86,10.01-18.51,19.22-28.89,27.65
			c-11.24,9.12-23.17,17.13-36.84,22.24C157.17,479.6,156.57,479.75,155.35,480.14z"/>
		<path class="st1" d="M356.69,167.43c10.27-0.62,18.69,7.66,18.85,18.08c0.16,10.44-8.29,18.49-19.24,18.49
			c-10.56,0-18.66-8.14-18.63-18.73C337.71,174.95,345.72,167.44,356.69,167.43z"/>
	</g>
</g>
</svg>
