<?xml version="1.0" encoding="utf-8"?>
<!-- Generator: Adobe Illustrator 28.1.0, SVG Export Plug-In . SVG Version: 6.00 Build 0)  -->
<svg version="1.1" id="레이어_1" xmlns="http://www.w3.org/2000/svg" xmlns:xlink="http://www.w3.org/1999/xlink" x="0px"
	 y="0px" viewBox="0 0 595.28 595.8" style="enable-background:new 0 0 595.28 595.8;" xml:space="preserve">
<style type="text/css">
	.st0{fill:#1883E0;}
</style>
<g>
	<path class="st0" d="M507.75,162.71c-9.41-19.76-25.01-33.75-44.9-42.91c-1.53-0.7-3.1-1.26-4.01-2.98
		c-9.11-17.15-22.86-29.85-39.2-39.77c-31.73-19.27-66.22-23.79-101.94-15.91c-42.83,9.45-74.39,34.89-95.44,73.08
		c-14.78,26.8-21.19,56.2-24.65,86.36c-0.34,2.94,0.42,6.26-3.29,8.57c-28.04,17.42-48.87,41.68-64.14,70.57
		c-13.32,25.19-23.99,51.66-35,77.93c-5.33,12.73-11.55,25.19-13.57,39.07c-1.07,7.34-0.67,14.4,4.96,20.18
		c6.64,6.81,15.15,8.49,24.08,8.82c8.58,0.31,17.17,0.32,26.16-0.93c-0.4,1.03-0.49,1.38-0.65,1.7
		c-8.31,14.02-16.66,28.03-24.95,42.07c-5.44,9.21-11.21,18.27-15.68,28c-4.95,10.8,0.13,20.99,11.43,22.68
		c6.54,0.98,13.29,0.76,19.87,0.01c17.39-1.98,33.03-8.85,47.56-18.32c18.41-12,34.24-26.99,48.92-43.23
		c1.13-1.25,2.12-1.77,3.71-1.71c5.89,0.21,11.79,0.56,17.68,0.46c19.24-0.32,38.26-2.37,56.82-7.75c1.62-0.47,2.77-0.2,3.71,1.6
		c4.65,8.95,9.48,17.79,14.23,26.68c0.78,1.46,2.1,2.7,1.96,4.71c-1.29,0-2.5,0-3.71,0c-11.18,0.02-22.37-0.16-33.54,0.13
		c-7.78,0.21-13.57,6.93-13.4,14.96c0.17,8.2,6.68,15.02,13.76,14.75c4.41-0.17,8.84,0.06,13.26,0.05
		c31.7-0.05,63.41-0.06,95.11-0.22c7.82-0.04,13.54-6.33,13.58-14.27c0.04-8.63-5.42-15.08-13.45-15.26
		c-11.18-0.25-22.37-0.35-33.54-0.02c-4.13,0.12-6.47-0.93-7.86-4.87c-0.96-2.71-2.69-5.15-4.05-7.72
		c-5.4-10.16-10.78-20.33-16.23-30.61c0.64-0.15,1.14-0.2,1.58-0.39c35.05-15.02,63.3-38.36,85.36-69.4
		c27.58-38.8,40.91-82,40.38-129.51c-0.03-3.22,1.04-3.99,3.86-4.59c15.89-3.38,29.62-10.78,39.76-23.62
		C519.24,209.65,518.96,186.24,507.75,162.71z M431.75,133.59c-7.94,14.36-13.37,29.67-15.59,45.89
		c-3.65,26.64-1.31,52.62,10.13,77.37c2.85,6.16,1.59,12.82,1.33,19.23c-0.56,13.8-2.52,27.43-6.43,40.74
		c-7.66,26.09-20.28,49.39-38.42,69.73c-26.95,30.21-60.89,47.77-100.22,55.35c-19.59,3.77-39.46,4.11-59.33,2.5
		c-4.31-0.35-7.91,0.69-10.84,4.01c-10.19,11.51-21.28,22.1-33.21,31.79c-12.92,10.49-26.64,19.7-42.36,25.58
		c-0.68,0.22-1.37,0.4-2.77,0.85c12.01-20.17,23.96-39.52,35.09-59.34c3.53-6.3,8.07-8.86,14.69-10.47
		c35.58-8.68,68.11-23.83,96.41-47.36c20.08-16.7,37.1-35.95,47.64-60.18c9.08-20.88,11.96-42.53,5.03-64.55
		c-7-22.28-23.4-35.7-44.55-43.79c-14.27-5.46-29.15-6.83-44.33-5.52c-4.75,0.41-9.46,0.99-14.06,2.25
		c-1.32,0.36-2.19,0.37-1.96-1.38c3.68-28.1,10.15-55.18,27.26-78.68c16.74-22.99,37.99-39.76,65.8-46.66
		c35.81-8.89,68.68-2.53,97.36,21.58c5.58,4.69,9.75,10.57,13.43,16.83C432.77,130.92,432.62,132.02,431.75,133.59z"/>
	<path class="st0" d="M365.53,147.09c11.81-0.71,21.49,8.81,21.67,20.79c0.18,12-9.53,21.25-22.12,21.26
		c-12.14,0-21.46-9.36-21.42-21.53C343.71,155.74,352.92,147.1,365.53,147.09z"/>
</g>
</svg>
